<?xml version="1.0" standalone="no"?>
<!DOCTYPE svg PUBLIC "-//W3C//DTD SVG 20010904//EN"
 "http://www.w3.org/TR/2001/REC-SVG-20010904/DTD/svg10.dtd">
<svg version="1.0" xmlns="http://www.w3.org/2000/svg"
 width="500.000000pt" height="500.000000pt" viewBox="0 0 500.000000 500.000000"
 preserveAspectRatio="xMidYMid meet">

<g transform="translate(0.000000,500.000000) scale(0.100000,-0.100000)"
fill="#000000" stroke="none">
<path d="M351 4388 c-74 -28 -142 -97 -170 -171 l-21 -58 0 -1308 c0 -1470 -6
-1359 77 -1451 25 -28 69 -63 97 -78 l51 -27 1138 -3 1137 -2 0 -225 c0 -205
2 -229 21 -282 29 -76 96 -143 173 -172 l58 -21 856 2 857 3 44 23 c64 35 127
104 150 168 21 54 21 66 21 1363 0 1470 6 1359 -77 1451 -52 58 -117 95 -185
105 l-47 7 -3 237 c-3 235 -3 236 -30 288 -34 64 -86 115 -147 145 l-46 23
-1950 2 -1950 2 -54 -21z m3935 -149 c26 -12 53 -36 66 -57 22 -35 23 -48 26
-254 l3 -217 -748 -3 -748 -3 -50 -27 c-28 -14 -70 -47 -94 -73 -82 -89 -75 4
-81 -1140 l-5 -1020 -1115 0 -1115 0 -37 23 c-21 13 -45 40 -57 66 -21 42 -21
48 -21 1317 0 1221 1 1276 19 1315 17 38 54 73 91 87 8 3 872 6 1919 6 l1905
1 42 -21z m-861 -706 c22 -36 51 -60 94 -78 43 -19 399 -21 452 -3 46 16 82
43 103 79 l18 30 241 -3 c232 -3 244 -4 279 -26 21 -13 45 -40 57 -66 21 -42
21 -48 21 -1317 l0 -1275 -22 -44 c-15 -30 -37 -53 -63 -67 l-40 -23 -815 0
-815 0 -40 23 c-26 14 -48 37 -62 67 l-23 44 0 1275 c0 1264 0 1275 20 1317
21 43 53 71 99 84 14 5 128 9 252 9 l227 1 17 -27z"/>
<path d="M495 4075 c-30 -30 -32 -64 -4 -99 26 -33 79 -36 109 -6 30 30 27 83
-6 109 -35 28 -69 26 -99 -4z"/>
<path d="M822 4093 c-21 -8 -43 -61 -36 -88 21 -84 144 -67 144 20 0 56 -54
90 -108 68z"/>
<path d="M1126 4079 c-33 -26 -36 -79 -6 -109 48 -48 139 -2 126 63 -12 62
-70 85 -120 46z"/>
<path d="M701 3619 c-46 -14 -127 -97 -140 -145 -7 -25 -11 -169 -11 -389 0
-347 0 -351 24 -401 27 -59 90 -116 145 -132 54 -17 858 -17 912 0 51 15 114
69 142 122 22 40 22 48 22 406 l0 365 -30 54 c-16 29 -43 64 -60 77 -71 54
-70 54 -537 53 -245 0 -448 -5 -467 -10z"/>
<path d="M1980 3140 c-27 -27 -27 -83 2 -110 20 -19 34 -20 205 -20 182 0 184
0 208 25 30 30 32 64 4 99 l-20 26 -190 0 c-176 0 -190 -1 -209 -20z"/>
<path d="M1982 2827 c-28 -30 -29 -80 -2 -107 19 -19 33 -20 209 -20 l190 0
20 26 c28 35 26 69 -4 99 -24 25 -26 25 -208 25 -179 0 -184 -1 -205 -23z"/>
<path d="M571 2354 c-27 -34 -27 -64 0 -98 l20 -26 890 0 890 0 24 25 c32 31
32 69 0 100 l-24 25 -890 0 -890 0 -20 -26z"/>
<path d="M575 2045 c-31 -30 -32 -73 -5 -103 l21 -22 894 0 894 0 20 26 c28
35 26 69 -4 99 l-24 25 -886 0 -886 0 -24 -25z"/>
<path d="M2890 2190 l0 -1170 860 0 860 0 0 1170 0 1170 -860 0 -860 0 0
-1170z m439 526 c19 -17 21 -30 21 -133 l0 -113 509 0 c486 0 510 -1 532 -19
l24 -19 0 -274 c0 -266 -1 -274 -24 -325 -21 -48 -73 -106 -115 -130 -14 -8
-15 -14 -6 -37 33 -89 -23 -211 -113 -245 -45 -17 -124 -13 -167 9 -71 36
-118 126 -106 201 l6 39 -74 0 -74 0 6 -45 c10 -90 -61 -195 -143 -211 -66
-12 -133 0 -173 33 -57 47 -77 88 -75 158 0 33 3 67 5 76 2 10 -15 30 -41 50
-26 19 -56 56 -70 84 l-26 49 -3 368 -3 368 -42 0 c-57 0 -87 22 -87 64 0 58
35 76 141 73 59 -2 82 -6 98 -21z"/>
<path d="M3350 2125 c0 -231 6 -261 62 -295 32 -19 50 -20 409 -20 492 0 459
-22 459 310 l0 210 -465 0 -465 0 0 -205z m308 129 c21 -14 22 -22 22 -146 0
-108 -3 -135 -17 -150 -21 -24 -68 -23 -93 2 -18 18 -20 33 -20 142 0 111 2
124 22 145 25 27 54 29 86 7z m402 -4 c18 -18 20 -33 20 -147 0 -143 -8 -163
-66 -163 -54 0 -64 25 -64 167 0 110 2 125 20 143 11 11 31 20 45 20 14 0 34
-9 45 -20z"/>
<path d="M3512 1654 c-18 -12 -22 -24 -20 -52 7 -79 109 -81 116 -3 6 60 -46
90 -96 55z"/>
<path d="M4042 1654 c-43 -30 -15 -114 38 -114 24 0 70 42 70 63 0 24 -40 67
-64 67 -12 0 -32 -7 -44 -16z"/>
<path d="M3564 966 c-51 -22 -60 -81 -19 -121 24 -25 26 -25 205 -25 179 0
181 0 205 25 43 42 29 105 -26 124 -47 16 -326 14 -365 -3z"/>
</g>
</svg>
